<?xml version="1.0" encoding="UTF-8"?>
<svg id="Layer_1" data-name="Layer 1" xmlns="http://www.w3.org/2000/svg" version="1.1" viewBox="0 0 24 24">
  <defs>
    <style>
      .cls-1 {
        fill: #000;
        stroke-width: 0px;
      }
    </style>
  </defs>
  <g id="cloud">
    <path id="cloud_2" data-name="cloud 2" class="cls-1" d="M4.6,10.8c0-.1,0-.3,0-.4,0-2.4,1.9-4.3,4.3-4.3.6,0,1.1.1,1.7.3.9-1.5,2.6-2.5,4.5-2.5,2.9,0,5.3,2.4,5.3,5.3,0,.3,0,.7-.1,1,1.6.9,2.7,2.6,2.7,4.6,0,2.9-2.4,5.3-5.3,5.3H6.3c-.2,0-.4,0-.5,0-2.6,0-4.8-2.1-4.8-4.8s1.5-4.1,3.6-4.6Z"/>
  </g>
</svg>